HIERARCHY
ROOT hip
{
	OFFSET 0.000000 0.000000 0.000000
	CHANNELS 6 Xposition Yposition Zposition Zrotation Yrotation Xrotation 
	JOINT lhipjoint
	{
		OFFSET 0.000000 0.000000 0.000000
		CHANNELS 3 Zrotation Yrotation Xrotation
		JOINT lfemur
		{
			OFFSET 1.363060 -1.794630 0.839290
			CHANNELS 3 Zrotation Yrotation Xrotation
			JOINT ltibia
			{
				OFFSET 2.448110 -6.726130 0.000000
				CHANNELS 3 Zrotation Yrotation Xrotation
				JOINT lfoot
				{
					OFFSET 2.562200 -7.039590 0.000000
					CHANNELS 3 Zrotation Yrotation Xrotation
					JOINT ltoes
					{
						OFFSET 0.157640 -0.433110 2.322550
						CHANNELS 3 Zrotation Yrotation Xrotation
						End Site
						{
							OFFSET 0.000000 0.000000 0.000000
						}
					}
				}
			}
		}
	}
	JOINT rhipjoint
	{
		OFFSET 0.000000 0.000000 0.000000
		CHANNELS 3 Zrotation Yrotation Xrotation
		JOINT rfemur
		{
			OFFSET -1.305520 -1.794630 0.839290
			CHANNELS 3 Zrotation Yrotation Xrotation
			JOINT rtibia
			{
				OFFSET -2.542530 -6.985550 0.000000
				CHANNELS 3 Zrotation Yrotation Xrotation
				JOINT rfoot
				{
					OFFSET -2.568260 -7.056230 0.000000
					CHANNELS 3 Zrotation Yrotation Xrotation
					JOINT rtoes
					{
						OFFSET -0.164730 -0.452590 2.363150
						CHANNELS 3 Zrotation Yrotation Xrotation
						End Site
						{
							OFFSET 0.000000 0.000000 0.000000
						}
					}
				}
			}
		}
	}
	JOINT lowerback
	{
		OFFSET 0.000000 0.000000 0.000000
		CHANNELS 3 Zrotation Yrotation Xrotation
		JOINT upperback
		{
			OFFSET 0.028270 2.035590 -0.193380
			CHANNELS 3 Zrotation Yrotation Xrotation
			JOINT thorax
			{
				OFFSET 0.056720 2.048850 -0.042750
				CHANNELS 3 Zrotation Yrotation Xrotation
				JOINT lowerneck
				{
					OFFSET 0.000000 0.000000 0.000000
					CHANNELS 3 Zrotation Yrotation Xrotation
					JOINT upperneck
					{
						OFFSET -0.054170 1.746240 0.172020
						CHANNELS 3 Zrotation Yrotation Xrotation
						JOINT head
						{
							OFFSET 0.104070 1.761360 -0.123970
							CHANNELS 3 Zrotation Yrotation Xrotation
							End Site
							{
								OFFSET 0.000000 0.000000 0.000000
							}
						}
					}
				}
				JOINT lclavicle
				{
					OFFSET 0.000000 0.000000 0.000000
					CHANNELS 3 Zrotation Yrotation Xrotation
					JOINT lhumerus
					{
						OFFSET 3.362410 1.200890 -0.311210
						CHANNELS 3 Zrotation Yrotation Xrotation
						JOINT lradius
						{
							OFFSET 4.983000 -0.000000 -0.000000
							CHANNELS 3 Zrotation Yrotation Xrotation
							JOINT lwrist
							{
								OFFSET 3.483560 -0.000000 -0.000000
								CHANNELS 3 Zrotation Yrotation Xrotation
								JOINT lhand
								{
									OFFSET 0.000000 0.000000 0.000000
									CHANNELS 3 Zrotation Yrotation Xrotation
									JOINT lfingers
									{
										OFFSET 0.715260 -0.000000 -0.000000
										CHANNELS 3 Zrotation Yrotation Xrotation
										End Site
										{
											OFFSET 0.000000 0.000000 0.000000
										}
									}
								}
								JOINT lthumb
								{
									OFFSET 0.000000 0.000000 0.000000
									CHANNELS 3 Zrotation Yrotation Xrotation
									End Site
									{
										OFFSET 0.000000 0.000000 0.000000
									}
								}
							}
						}
					}
				}
				JOINT rclavicle
				{
					OFFSET 0.000000 0.000000 0.000000
					CHANNELS 3 Zrotation Yrotation Xrotation
					JOINT rhumerus
					{
						OFFSET -3.136600 1.374050 -0.404650
						CHANNELS 3 Zrotation Yrotation Xrotation
						JOINT rradius
						{
							OFFSET -5.241900 -0.000000 -0.000000
							CHANNELS 3 Zrotation Yrotation Xrotation
							JOINT rwrist
							{
								OFFSET -3.444170 -0.000000 -0.000000
								CHANNELS 3 Zrotation Yrotation Xrotation
								JOINT rhand
								{
									OFFSET 0.000000 0.000000 0.000000
									CHANNELS 3 Zrotation Yrotation Xrotation
									JOINT rfingers
									{
										OFFSET -0.622530 -0.000000 -0.000000
										CHANNELS 3 Zrotation Yrotation Xrotation
										End Site
										{
											OFFSET 0.000000 0.000000 0.000000
										}
									}
								}
								JOINT rthumb
								{
									OFFSET 0.000000 0.000000 0.000000
									CHANNELS 3 Zrotation Yrotation Xrotation
									End Site
									{
										OFFSET 0.000000 0.000000 0.000000
									}
								}
							}
						}
					}
				}
			}
		}
	}
}
MOTION
Frames: 8
Frame Time: 0.008333
0.424837 1.814858 0.589545 175.802116 22.433733 109.583530 -0.027802 0.973615 -1.262341 4.793847 1.504811 -67.740383 20.776852 20.460343 92.260153 1.295945 2.070518 22.547832 1.439400 -7.585000 -21.460600 -1.515463 -1.273951 -0.665104 27.162929 7.118077 -67.871713 -21.959243 -20.153305 94.057192 1.729351 -17.379208 17.864723 -0.240600 -3.156700 8.715300 -9.460777 -8.323280 67.097379 0.593751 -5.979162 1.134243 5.895338 2.009642 6.591745 -2.270795 2.442187 -1.387657 -5.953246 6.422654 -6.506010 0.389300 4.578800 -4.863600 -2.368805 2.830225 1.312405 -11.947300 -34.429456 16.897144 97.419362 -61.640913 -62.573921 1.576701 -2.423252 145.204121 39.655709 19.481016 12.592700 -7.125000 0.000000 0.000000 12.010500 49.555900 1.366800 3.486046 1.386089 4.486294 55.142377 -21.859205 18.645172 -132.127701 48.589959 -96.089086 1.241199 -0.699094 -145.189237 -38.033631 13.881200 -10.425700 7.125000 0.000000 0.000000 -6.094300 -12.391800 -4.671600 
0.410385 1.815268 0.579090 176.053473 22.645808 109.745152 -0.079950 0.997150 -1.222596 4.949253 1.033946 -67.228569 20.298996 20.442767 90.834337 1.255374 2.356170 22.416317 1.444500 -7.598000 -21.499400 -1.510831 -1.265228 -0.673816 27.296533 7.315569 -67.937525 -21.962742 -20.145123 94.072703 1.728503 -17.372372 17.854560 -0.228200 -3.074700 8.486900 -9.236149 -8.581429 66.569387 0.672767 -6.171905 1.128432 6.118189 1.813869 6.587324 -2.301218 2.642748 -1.322232 -6.068156 6.631721 -6.373908 0.319000 4.657700 -4.796800 -2.391675 2.846712 1.339112 -13.800519 -33.941498 17.103076 98.437131 -61.467546 -63.586433 1.564540 -2.417849 145.447072 39.826706 19.595891 12.759200 -7.125000 0.000000 0.000000 12.203900 49.735000 1.443800 3.501518 1.325117 4.430522 55.030851 -20.845664 18.055791 -133.167176 48.102233 -96.990300 1.196257 -0.702552 -144.213793 -37.266935 13.365070 -9.782600 7.125000 0.000000 0.000000 -5.694900 -13.190100 -4.266800 
0.396344 1.815781 0.570173 176.271810 22.857792 109.899538 -0.127929 1.020775 -1.183559 5.100886 0.611961 -66.739570 19.836768 20.417864 89.459504 1.215442 2.588430 22.255837 1.482100 -7.691800 -21.781900 -1.506605 -1.257313 -0.681680 27.440610 7.538418 -67.986729 -21.958855 -20.135545 94.064851 1.722066 -17.364934 17.882138 -0.212100 -2.964900 8.181100 -9.042164 -8.805898 66.050818 0.749868 -6.347647 1.119894 6.331342 1.626254 6.581062 -2.295935 2.846973 -1.278867 -6.185108 6.840967 -6.216713 0.241800 4.732300 -4.707700 -2.408473 2.861007 1.364890 -15.684151 -33.422694 17.315308 99.514341 -61.278263 -64.652294 1.553068 -2.409485 145.738720 39.912492 19.725167 12.907400 -7.125000 0.000000 0.000000 12.315200 49.924300 1.515300 3.510573 1.261232 4.370555 55.040856 -19.716167 17.417614 -134.109256 47.627476 -97.801050 1.156526 -0.711471 -143.180891 -36.434782 12.931378 -9.193400 7.125000 0.000000 0.000000 -5.226100 -13.887700 -3.835300 
0.382507 1.815576 0.562691 176.479260 23.046547 110.041562 -0.176784 1.045791 -1.142421 5.249917 0.169217 -66.231412 19.385915 20.380492 88.111279 1.172832 2.863588 22.118831 1.484900 -7.698700 -21.802700 -1.502610 -1.249392 -0.686204 27.553057 7.752030 -68.039424 -21.953248 -20.127025 94.051081 1.718529 -17.364059 17.898230 -0.200700 -2.884400 7.957000 -8.894668 -9.008984 65.590545 0.830039 -6.528365 1.096914 6.563518 1.431844 6.533519 -2.271126 3.063276 -1.219334 -6.317151 7.065595 -6.073278 0.148800 4.813900 -4.624500 -2.418425 2.869572 1.386320 -17.582704 -32.827753 17.526686 100.629470 -61.075944 -65.758388 1.542236 -2.398044 146.019798 39.973119 19.930930 13.107100 -7.125000 0.000000 0.000000 12.408600 50.207500 1.614500 3.512273 1.199719 4.308718 55.135355 -18.510950 16.826813 -134.976565 47.157702 -98.536498 1.120636 -0.723906 -141.972693 -35.512130 12.474680 -8.582800 7.125000 0.000000 0.000000 -4.687100 -14.611100 -3.364600 
0.368158 1.814346 0.557054 176.643070 23.277799 110.134976 -0.220429 1.073513 -1.100205 5.432419 -0.196739 -65.702897 18.950571 20.341986 86.797399 1.130090 3.204945 22.047092 1.468800 -7.658700 -21.682100 -1.497057 -1.239849 -0.692515 27.725949 7.990228 -68.029455 -21.936367 -20.113569 94.005866 1.703859 -17.342517 17.965068 -0.185200 -2.771800 7.644200 -8.799903 -9.165129 65.197535 0.913848 -6.659881 1.076448 6.839172 1.254193 6.503771 -2.294472 3.276570 -1.199270 -6.430767 7.287487 -5.923646 0.076800 4.897400 -4.530900 -2.422762 2.877676 1.404698 -19.439841 -32.220991 17.684092 101.752020 -60.869003 -66.868593 1.535859 -2.383399 146.265652 39.931893 20.165490 13.288800 -7.125000 0.000000 0.000000 12.400500 50.512500 1.707400 3.513936 1.131967 4.244903 55.244250 -17.161780 16.251738 -135.764403 46.707823 -99.194757 1.087708 -0.738163 -140.640814 -34.537621 12.002223 -7.973100 7.125000 0.000000 0.000000 -4.102300 -15.342200 -2.878200 
0.354731 1.812706 0.552134 176.776142 23.466102 110.226248 -0.264006 1.102552 -1.056273 5.567427 -0.559606 -65.176189 18.518985 20.292751 85.502958 1.087396 3.464665 21.915812 1.475000 -7.674100 -21.728500 -1.491762 -1.230180 -0.695931 27.833849 8.251938 -68.035326 -21.921082 -20.101114 93.962591 1.694743 -17.338240 18.014620 -0.172000 -2.671600 7.365700 -8.760068 -9.281981 64.832150 0.998728 -6.780228 1.043305 7.130621 1.075349 6.439104 -2.285802 3.494491 -1.180936 -6.550830 7.511320 -5.760993 -0.006500 4.978100 -4.424800 -2.418865 2.876268 1.417536 -21.231477 -31.584272 17.877470 102.893518 -60.649918 -67.986332 1.534799 -2.366778 146.498281 39.764987 20.433001 13.442000 -7.125000 0.000000 0.000000 12.264800 50.837000 1.787000 3.511316 1.067004 4.178539 55.441984 -15.815112 15.745607 -136.565520 46.219582 -99.860911 1.055306 -0.756851 -139.056523 -33.507768 11.548601 -7.387000 7.125000 0.000000 0.000000 -3.464600 -16.039800 -2.376800 
0.340792 1.810144 0.547830 176.913518 23.670723 110.294251 -0.306214 1.131592 -1.013293 5.730222 -0.918846 -64.631142 18.097127 20.236582 84.235478 1.045598 3.708172 21.784222 1.471800 -7.666200 -21.704600 -1.486172 -1.220413 -0.699697 27.980449 8.483206 -68.019000 -21.898547 -20.088592 93.899327 1.672754 -17.306906 18.120542 -0.156500 -2.549100 7.025700 -8.729951 -9.401429 64.513372 1.082518 -6.898963 1.013682 7.420889 0.904370 6.383598 -2.284618 3.707071 -1.159507 -6.675627 7.733863 -5.625171 -0.091400 5.062000 -4.332000 -2.410694 2.879996 1.428885 -23.001018 -30.957764 18.019061 103.975294 -60.445977 -69.046154 1.534332 -2.347121 146.672196 39.596875 20.669456 13.570800 -7.125000 0.000000 0.000000 12.122400 51.126000 1.852600 3.505199 1.000861 4.112849 55.691965 -14.380438 15.339606 -137.363789 45.706690 -100.518635 1.024617 -0.776779 -137.195503 -32.495369 11.055039 -6.813000 7.125000 0.000000 0.000000 -2.830400 -16.757300 -1.896500 
0.327775 1.806966 0.545677 177.027642 23.881733 110.325952 -0.347655 1.160443 -0.970609 5.911896 -1.272832 -64.049513 17.685475 20.173941 83.004841 1.004487 3.869319 21.591327 1.503700 -7.745300 -21.943000 -1.478894 -1.210763 -0.703301 28.136738 8.717003 -67.958517 -21.872896 -20.073656 93.827106 1.658334 -17.290735 18.192621 -0.147000 -2.470900 6.808900 -8.720028 -9.488570 64.238713 1.164685 -6.979239 0.986002 7.704960 0.756484 6.335702 -2.247941 3.890298 -1.169434 -6.822725 7.916452 -5.484180 -0.191400 5.125100 -4.222600 -2.393176 2.885072 1.444529 -24.821710 -30.399423 18.088053 105.089990 -60.232520 -70.136248 1.527165 -2.324844 146.968024 39.511545 20.914189 13.745200 -7.125000 0.000000 0.000000 12.069700 51.445200 1.939800 3.502742 0.932215 4.044878 55.971435 -12.951893 14.973111 -138.182975 45.156282 -101.193312 0.993267 -0.798378 -135.175728 -31.474273 10.620702 -6.298700 7.125000 0.000000 0.000000 -2.173100 -17.389600 -1.425300 
